:SAMPLES-PER-SECOND 30
:FULLY-SPECIFIED
:DEGREES
674
root  12.8 39.9781 28.0362 177.456 13.3087 175.962
RightUpLeg  7.8678 -13.0889 -12.3134
RightLeg  2.70952 -10.4887 1.43136
RightFoot  -4.4944 -0.401289 6.18933
RightToes  5.82063e-011 0 -3.6325e-017
Spine  6.39196 0.844803 11.1508
Spine1  6.98499 2.71706 -5.87673
HEad  -28.847 29.9952 -14.6449
LeftShoulder1  0.543641 1.99385 -29.9153
LeftArm  -0.629571 24.193 -41.0767
LeftForeArm  25.558 -11.0528 -8.2755
LeftHand  -0.006302 3.41993 -0.78102
RightShoulder  -0.460136 -4.90087 26.0684
RightArm  16.6896 0.91381 43.1254
RightForeArm  12.663 7.39182 8.30191
RightHand  -0.127978 1.29853 -2.35237
LeftUpLeg  -13.1933 4.64852 -0.760277
LeftLeg  2.344 16.23 -2.38012
LeftFoot  -2.24877 0.109389 -1.20914
LeftToes  1.81573e-012 2.54609e-010 -3.45981e-011
675
root  12.8909 39.9364 27.592 177.69 9.8143 176.333
RightUpLeg  9.9197 -12.6763 -11.9012
RightLeg  1.55829 -14.2431 1.66092
RightFoot  -4.70748 -0.428477 6.83138
RightToes  5.82063e-011 0 -3.6325e-017
Spine  6.21773 0.742078 10.195
Spine1  6.92632 2.44626 -5.27584
HEad  -28.4719 28.5109 -14.8217
LeftShoulder1  0.46144 2.23833 -30.3471
LeftArm  -0.786854 24.0103 -40.748
LeftForeArm  26.5576 -10.5699 -8.4227
LeftHand  -0.012454 3.87243 -0.631371
RightShoulder  -0.458097 -4.8849 26.2832
RightArm  16.49 -0.270535 43.3021
RightForeArm  13.667 6.56474 8.30672
RightHand  -0.13666 1.32643 -2.48925
LeftUpLeg  -11.5692 3.89726 -0.804432
LeftLeg  -3.67521 23.205 -2.79005
LeftFoot  -1.48048 -0.0108072 0.217301
LeftToes  1.81573e-012 2.54609e-010 -3.45981e-011
676
root  12.8996 39.8368 27.0662 178.281 6.56331 176.784
RightUpLeg  11.3511 -12.7904 -11.7308
RightLeg  1.06473 -17.0772 2.35224
RightFoot  -5.2828 -0.425221 7.34174
RightToes  5.82063e-011 0 -3.6325e-017
Spine  5.31118 0.719421 9.6147
Spine1  7.29192 2.36556 -5.31845
HEad  -29.4692 29.8691 -14.6661
LeftShoulder1  0.401226 2.39161 -29.9736
LeftArm  -1.24867 24.2381 -41.1973
LeftForeArm  28.2056 -10.8817 -8.15337
LeftHand  0.0223425 2.86196 -1.81983
RightShoulder  -0.523271 -5.05681 26.8882
RightArm  16.2358 -1.44608 43.4571
RightForeArm  13.7279 6.36376 8.20747
RightHand  -0.168258 1.42796 -3.01327
LeftUpLeg  -10.9121 3.17892 -0.97185
LeftLeg  -7.33547 31.4796 -3.62058
LeftFoot  -0.392437 -0.150455 1.60061
LeftToes  1.81573e-012 2.54609e-010 -3.45981e-011
677
root  12.8482 39.6682 26.4809 178.435 3.0074 177.403
RightUpLeg  13.0827 -12.8867 -11.4543
RightLeg  1.25514 -20.0758 2.85994
RightFoot  -6.21726 -0.406229 8.13599
RightToes  5.82063e-011 0 -3.6325e-017
Spine  4.86461 0.667909 9.21278
Spine1  7.63128 2.29664 -5.36864
HEad  -30.7492 26.2219 -16.1147
LeftShoulder1  0.413445 2.3527 -29.8077
LeftArm  -1.42151 23.9879 -41.2664
LeftForeArm  28.0241 -11.603 -7.77105
LeftHand  0.0511402 2.31458 -2.46861
RightShoulder  -0.57284 -5.18421 27.3319
RightArm  15.8977 -3.19825 43.549
RightForeArm  12.7714 7.2212 7.9798
RightHand  -0.170252 0.887988 -3.24759
LeftUpLeg  -10.74 3.78604 -0.711818
LeftLeg  -6.98952 35.9754 -4.2598
LeftFoot  0.155277 -0.247383 2.47224
LeftToes  1.81573e-012 2.54609e-010 -3.45981e-011
678
root  12.7254 39.474 25.7894 178.343 -0.428558 177.672
RightUpLeg  15.2016 -13.1832 -11.7959
RightLeg  1.4963 -22.4254 3.39215
RightFoot  -7.30538 -0.391588 9.6717
RightToes  5.82063e-011 0 -3.6325e-017
Spine  4.51538 0.621302 8.23896
Spine1  7.9098 2.22005 -5.3729
HEad  -31.3261 23.5738 -16.6228
LeftShoulder1  0.388732 2.42033 -29.7651
LeftArm  0.086693 23.6451 -40.8529
LeftForeArm  26.5155 -12.6879 -7.6075
LeftHand  0.0653125 1.91012 -2.57791
RightShoulder  -0.561633 -5.14085 27.527
RightArm  15.9306 -4.74138 43.7316
RightForeArm  12.4369 7.75829 7.86776
RightHand  -0.173535 1.06587 -3.2341
LeftUpLeg  -11.0728 4.25896 -0.996101
LeftLeg  -3.55261 37.8961 -2.85217
LeftFoot  1.43366 -0.332839 2.88216
LeftToes  1.81573e-012 2.54609e-010 -3.45981e-011
679
root  12.5091 39.2837 25.0405 178.448 -3.78131 177.425
RightUpLeg  17.0793 -13.7723 -12.9407
RightLeg  2.19565 -23.9709 3.8602
RightFoot  -8.32686 -0.357146 11.4152
RightToes  5.82063e-011 0 -3.6325e-017
Spine  3.76898 0.609189 6.99682
Spine1  8.37723 2.26577 -5.8557
HEad  -32.2466 22.574 -15.5274
LeftShoulder1  0.383445 2.43022 -29.6024
LeftArm  1.61879 23.365 -40.4752
LeftForeArm  25.0596 -14.2783 -7.1004
LeftHand  0.0579653 2.13522 -2.55875
RightShoulder  -0.504938 -4.98693 27.2192
RightArm  16.268 -6.24712 44.3757
RightForeArm  13.4802 8.49685 7.80538
RightHand  -0.125503 1.26466 -2.32815
LeftUpLeg  -11.5978 4.51196 -1.91188
LeftLeg  -1.23897 37.6428 -2.21348
LeftFoot  4.94343 -0.934444 6.14447
LeftToes  1.81573e-012 2.54609e-010 -3.45981e-011
680
root  12.2017 39.1041 24.2358 178.439 -7.40587 176.499
RightUpLeg  18.862 -15.1867 -15.1249
RightLeg  4.23807 -24.8661 3.41734
RightFoot  -9.11676 -0.340016 14.219
RightToes  5.82063e-011 0 -3.6325e-017
Spine  3.39301 0.662749 5.2576
Spine1  8.46628 2.37181 -6.41904
HEad  -32.9006 22.6803 -13.8352
LeftShoulder1  0.417428 2.33787 -29.7313
LeftArm  2.94934 22.3908 -39.6648
LeftForeArm  24.068 -15.192 -6.81779
LeftHand  0.0689696 2.2567 -3.11034
RightShoulder  -0.535147 -5.07918 27.1715
RightArm  16.2887 -7.37339 44.7659
RightForeArm  14.9137 8.43465 7.77926
RightHand  -0.0605186 1.38509 -1.23568
LeftUpLeg  -11.9358 3.32155 -4.07157
LeftLeg  1.21757 34.7498 -0.638423
LeftFoot  8.16476 -1.86737 10.6484
LeftToes  1.81573e-012 2.54609e-010 -3.45981e-011
681
root  11.8511 38.9819 23.4874 178.393 -11.4142 175.348
RightUpLeg  20.6185 -20.3436 -19.0149
RightLeg  8.16255 -21.7164 1.34006
RightFoot  -9.14556 -0.4246 18.7306
RightToes  5.82063e-011 0 -3.6325e-017
Spine  3.71794 0.438723 3.12635
Spine1  8.20116 2.08076 -6.79323
HEad  -33.1763 23.0164 -13.1267
LeftShoulder1  0.323658 2.61542 -30.3161
LeftArm  2.77467 20.0031 -38.6325
LeftForeArm  23.9053 -14.6338 -7.08289
LeftHand  0.051836 2.00949 -2.19155
RightShoulder  -0.501721 -4.98146 27.1304
RightArm  15.7541 -7.75323 45.5825
RightForeArm  15.4979 7.44138 7.86376
RightHand  -0.13723 0.0615133 -2.91215
LeftUpLeg  -12.4468 3.15615 -6.02384
LeftLeg  5.90042 31.4627 0.697786
LeftFoot  5.86166 -1.8059 11.6337
LeftToes  1.81573e-012 2.54609e-010 -3.45981e-011
682
root  11.4567 38.8642 22.7666 178.288 -15.7972 174.217
RightUpLeg  22.3113 -28.7764 -24.3924
RightLeg  13.9777 -14.3295 -2.34784
RightFoot  -8.32002 -0.721826 24.2418
RightToes  5.82063e-011 0 -3.6325e-017
Spine  3.94206 0.37092 1.88717
Spine1  8.30289 2.04617 -7.7701
HEad  -32.2828 20.5337 -13.6018
LeftShoulder1  0.392179 2.42471 -30.2333
LeftArm  -0.568514 16.289 -38.9209
LeftForeArm  26.9886 -11.7504 -7.92591
LeftHand  0.0283356 2.54739 -1.78416
RightShoulder  -0.465683 -4.87453 27.0464
RightArm  14.556 -7.95167 46.4402
RightForeArm  15.465 5.91237 7.62961
RightHand  -0.14358 0.594355 -2.85937
LeftUpLeg  -12.0623 2.9702 -7.91798
LeftLeg  9.17114 27.6175 1.06752
LeftFoot  3.32525 -1.46058 11.1575
LeftToes  1.81573e-012 2.54609e-010 -3.45981e-011
683
root  11.0147 38.8173 22.0739 177.877 -19.3629 173.87
RightUpLeg  21.1315 -28.6071 -25.2587
RightLeg  21.413 -12.3267 -5.71576
RightFoot  -5.07022 -1.43352 25.6298
RightToes  5.82063e-011 0 -3.6325e-017
Spine  4.4189 0.695772 1.90131
Spine1  8.01866 2.38952 -8.64324
HEad  -29.258 17.3664 -13.8488
LeftShoulder1  0.412086 2.3858 -30.7648
LeftArm  -2.57165 12.3374 -39.2737
LeftForeArm  28.522 -8.97171 -8.52914
LeftHand  -0.00415096 2.99907 -0.641178
RightShoulder  -0.32541 -4.49526 25.7171
RightArm  13.5864 -8.42655 47.6765
RightForeArm  16.6447 5.12108 7.32189
RightHand  -0.113967 0.403805 -2.34091
LeftUpLeg  -10.8219 2.90213 -9.13157
LeftLeg  10.9088 24.4244 1.29134
LeftFoot  1.5303 -1.30145 11.4214
LeftToes  1.81573e-012 2.54609e-010 -3.45981e-011
